<svg width="223" height="196" viewBox="0 0 223 196" fill="none" xmlns="http://www.w3.org/2000/svg">
<g clip-path="url(#clip0_1766_528)">
<path d="M0.174545 176.989C4.44701 165.435 11.02 154.458 16.6076 143.482C17.2649 142.037 19.8941 142.037 20.8801 142.904C26.4666 148.103 32.7109 153.303 36.3266 159.658H36.6553C76.7506 162.258 115.531 132.216 143.138 110.263C175.017 85.1323 203.938 54.5133 215.441 17.8283C216.098 13.2065 216.756 8.29594 216.756 3.38534C216.756 1.07447 220.371 1.07447 220.699 3.38534C220.699 4.25192 220.699 5.11849 220.699 5.98507C222.014 5.98507 223 6.85165 223 8.29594C222.671 11.4734 221.685 14.6508 221.028 17.8283C218.399 96.1089 129.663 171.501 42.8996 176.412C45.8575 181.033 48.4862 185.943 51.7727 190.566C53.4164 192.587 50.7867 194.609 48.4861 194.32C32.0536 192.299 17.2644 185.366 2.14645 180.167C0.832382 179.878 -0.482224 178.722 0.174545 176.989ZM44.2142 188.544C42.2418 184.789 40.9277 181.033 38.6272 177.278C37.9693 175.833 38.9558 174.678 39.9418 174.39C39.9418 173.523 40.5991 172.945 41.585 172.656C120.132 161.102 183.891 114.018 207.553 50.18C192.107 75.3107 168.444 97.2639 145.11 115.751C128.02 129.328 109.944 141.459 90.2253 151.569C74.7787 159.368 55.3883 166.59 37.6412 161.68C38.6272 163.991 34.6834 165.146 33.3688 163.413C29.0963 158.502 24.8239 153.881 20.2227 149.548C15.6222 158.502 10.6919 167.457 7.07729 176.7C19.2368 180.745 31.3969 185.944 44.2142 188.544Z" fill="#384D84"/>
</g>
<defs>
<clipPath id="clip0_1766_528">
<rect width="223" height="196" fill="white" transform="matrix(-1 0 0 1 223 0)"/>
</clipPath>
</defs>
</svg>
