<svg width="223" height="196" viewBox="0 0 223 196" fill="none" xmlns="http://www.w3.org/2000/svg">
<g clip-path="url(#clip0_1760_509)">
<path d="M222.825 176.989C218.553 165.436 211.98 154.458 206.392 143.482C205.735 142.037 203.106 142.037 202.12 142.904C196.533 148.104 190.289 153.303 186.673 159.658H186.345C146.249 162.258 107.469 132.216 79.862 110.263C47.983 85.1324 19.0617 54.5133 7.55896 17.8283C6.90166 13.2066 6.24436 8.29597 6.24436 3.38537C6.24436 1.0745 2.6292 1.0745 2.30055 3.38537C2.30055 4.25195 2.30055 5.11852 2.30055 5.9851C0.985951 5.9851 0 6.85168 0 8.29597C0.32865 11.4734 1.3146 14.6509 1.9719 17.8283C4.6011 96.109 93.3367 171.501 180.1 176.412C177.143 181.033 174.514 185.944 171.227 190.566C169.584 192.587 172.213 194.609 174.514 194.32C190.946 192.299 205.736 185.366 220.854 180.167C222.168 179.878 223.482 178.723 222.825 176.989ZM178.786 188.544C180.758 184.789 182.072 181.033 184.373 177.278C185.031 175.833 184.044 174.679 183.058 174.39C183.058 173.523 182.401 172.945 181.415 172.656C102.868 161.102 39.1094 114.018 15.4466 50.18C30.8931 75.3107 54.556 97.2639 77.8901 115.751C94.9799 129.328 113.056 141.459 132.775 151.569C148.221 159.369 167.612 166.59 185.359 161.68C184.373 163.991 188.317 165.146 189.631 163.413C193.904 158.502 198.176 153.881 202.777 149.548C207.378 158.502 212.308 167.457 215.923 176.7C203.763 180.745 191.603 185.944 178.786 188.544Z" fill="#384D84"/>
</g>
<defs>
<clipPath id="clip0_1760_509">
<rect width="223" height="196" fill="white"/>
</clipPath>
</defs>
</svg>
