<svg width="247" height="126" viewBox="0 0 247 126" fill="none" xmlns="http://www.w3.org/2000/svg">
<path fill-rule="evenodd" clip-rule="evenodd" d="M48.1243 115.592C44.2959 113.829 36.6607 117.043 31.8138 117.645C29.3217 115.019 29.6829 109.534 29.7695 104.325C34.4287 102.875 38.1271 100.43 44.0503 100.234C42.2011 97.992 36.0612 100.06 33.8508 98.1807C33.3018 93.9511 32.3555 90.1206 31.8138 85.891C31.0914 81.4221 34.7537 81.335 34.8693 77.7004C24.5831 75.5747 10.5263 83.9613 0.196819 81.7921C-1.24787 76.2567 5.6794 79.1078 7.33357 76.6775C11.0103 76.2712 14.1742 75.3498 17.533 74.6243C23.9547 73.2242 29.8129 71.2871 36.9063 70.5254C29.1772 68.2401 19.859 73.1951 10.3963 72.5785C9.89788 67.297 7.7742 64.0614 9.3778 59.2587C21.7082 51.8515 38.0187 48.4273 54.2498 44.9232C44.6065 42.4203 33.7424 47.5349 21.6143 45.9461C19.5412 42.5582 17.8003 38.851 18.5516 32.6336C13.4374 31.9662 5.65773 33.9757 2.23383 31.6107C2.08936 27.3666 9.33445 30.5442 12.4333 29.5576C15.5755 27.9325 14.5498 22.1287 17.533 20.344C42.4828 12.2694 71.4343 11.7398 100.14 10.1002C115.75 9.20787 134.813 7.12574 152.149 6.00125C176.304 4.43422 197.469 -2.3998 223.538 0.879368C224.838 4.92029 220.743 3.54188 219.457 4.97833C217.066 5.30479 215.628 6.59614 212.32 6.00125C216.271 7.39417 221.552 9.74472 218.438 15.2221C224.167 15.2656 227.901 17.326 230.675 20.344C230.335 27.1707 224.896 28.8901 221.494 32.6336C179.771 40.2294 141.668 51.4961 100.14 59.2587C115.1 60.2816 133.563 55.9578 149.086 54.1441C166.336 52.6931 182.502 50.1394 200.084 49.0222C200.589 54.3109 192.412 50.8794 189.884 53.1139C185.052 52.7076 182.863 54.9421 177.648 54.1441C194.485 57.6264 214.675 50.5167 231.693 54.1441C231.339 62.6612 220.779 60.9273 214.357 63.3577C206.549 64.3951 199.708 66.4047 190.903 66.4337C207.56 70.5254 236.324 62.4653 246.993 72.5785C247.238 80.3339 241.344 81.9227 237.812 85.891C221.848 88.2924 205.219 90.0263 190.903 94.089C192.622 95.0684 193.908 97.3028 191.921 99.2108C198.422 99.8783 207.928 97.4697 211.302 101.257C210.521 104.572 207.3 105.435 203.139 105.356C200.452 106.749 196.183 106.56 192.94 107.402C152.488 114.098 104.64 114.606 64.442 122.767C62.8167 123.094 60.9675 122.404 59.3423 122.767C56.8863 123.311 52.5811 127.236 48.1243 124.813C46.7952 120.402 51.0137 121.577 52.2055 119.691C37.7081 120.163 24.287 127.149 11.4148 125.836C10.288 121.904 15.5972 122.209 17.533 121.744C25.7027 119.706 35.5916 119.016 43.0318 116.622H45.0688C44.881 115.752 45.4661 115.65 46.0873 115.592H48.1243ZM100.133 14.1919C99.8513 13.909 98.5799 14.6925 99.1145 15.2221C99.4106 15.505 100.668 14.7288 100.133 14.1919ZM92.989 15.2221H86.8708C80.6297 15.8242 93.1046 17.667 92.9962 15.2221H92.989ZM83.8153 16.245H77.7404C71.4704 16.8181 83.9308 18.7262 83.8225 16.245H83.8153ZM37.9248 21.3669C31.7921 22.5712 25.2621 23.362 21.6071 27.5117C25.1393 28.3315 25.5222 25.9882 28.7438 26.4888C29.7262 24.7404 31.951 24.2398 33.8436 23.4128C44.5126 21.1565 57.038 20.7648 67.4975 18.2909C69.195 18.1675 76.7363 18.8495 73.6158 17.2679C61.6391 17.778 49.7141 19.1478 37.932 21.3669H37.9248ZM58.3165 42.8774C58.0348 42.5944 56.7707 43.3707 57.298 43.9003C57.587 44.1832 58.8511 43.3925 58.3238 42.8774H58.3165ZM89.9335 53.1139C89.6518 52.8309 88.3877 53.6072 88.915 54.1441C89.2039 54.427 90.468 53.6435 89.9407 53.1139H89.9335ZM86.8708 54.1441C85.6717 54.3037 83.9814 53.9627 83.8153 55.167C85.0216 55.0001 86.7191 55.3411 86.878 54.1441H86.8708ZM75.6528 57.2128C78.3182 56.8138 81.2509 56.6905 82.7968 55.167C80.283 55.1017 73.7386 56.1972 75.66 57.2128H75.6528ZM176.615 55.167H170.496C164.27 55.7256 176.701 57.6119 176.622 55.167H176.615ZM163.36 56.1899C162.565 56.4221 161.352 56.1899 161.323 57.2128C162.117 56.9807 163.338 57.1766 163.367 56.1899H163.36ZM73.623 57.2128C72.4239 57.3724 70.7336 57.0387 70.5603 58.2358C71.7666 58.0762 73.4569 58.4171 73.623 57.2128ZM99.1217 60.2889C97.9154 63.4012 93.7114 59.1789 99.1217 60.2889ZM100.14 66.4337C99.3456 66.6586 98.1249 66.4337 98.096 67.4566C98.8905 67.2245 100.133 67.4276 100.133 66.4337H100.14ZM94.022 67.4566C91.7827 70.5834 87.5209 66.2741 94.022 67.4566ZM40.9875 68.4795C39.7884 68.6391 38.0982 68.3054 37.932 69.5025C39.1311 69.3429 40.8214 69.6838 40.9875 68.4795ZM45.0688 76.6775C58.8655 73.7755 73.558 71.8313 86.878 68.4795C72.4456 70.714 55.7667 70.6922 45.0688 76.6775ZM49.15 98.1807C48.8683 97.8977 47.597 98.674 48.1243 99.2108C48.406 99.4938 49.6773 98.7103 49.15 98.1807ZM129.749 103.303C128.954 103.535 127.734 103.303 127.712 104.325C128.463 104.101 129.684 104.333 129.749 103.303ZM122.576 104.333C121.377 104.492 119.687 104.159 119.513 105.363C120.713 105.196 122.41 105.53 122.576 104.333ZM182.74 104.333H179.685C178.89 104.565 177.669 104.333 177.648 105.363C179.128 104.79 182.913 106.553 182.74 104.333ZM116.458 105.363C114.219 108.49 109.921 104.18 116.458 105.363ZM175.603 105.363H168.467C167.672 105.588 166.451 105.363 166.43 106.386C169.196 105.74 174.534 107.677 175.603 105.356V105.363ZM108.295 106.386C106.056 109.513 101.794 105.203 108.295 106.386ZM65.4605 117.645C98.3777 113.496 133.44 111.493 165.397 106.379C131.035 109.07 96.0806 111.181 65.4605 117.645ZM99.1145 107.402C98.3199 107.634 97.0991 107.402 97.0702 108.424C97.872 108.192 99.0928 108.395 99.1217 107.402H99.1145ZM95.0766 108.424C94.7949 108.142 93.5308 108.918 94.0581 109.447C94.3037 109.73 95.5678 108.954 95.0766 108.424ZM63.4596 117.645H60.4041C59.6095 117.877 58.3888 117.645 58.3599 118.668C59.8046 118.117 63.5969 119.865 63.4235 117.645H63.4596ZM57.3414 118.668C55.1021 121.795 50.8403 117.486 57.3414 118.668Z" fill="#3BCEE0"/>
</svg>
